#!OML:ASF E:\pregnant2\Project 1\Capture day 1\Session 1\pregnant2.ASF
:FULLY-SPECIFIED
:DEGREES
896
root 9.70762 16.6647 34.5349 24.9737 41.0575 -5.53444
lowerback -20.5469 1.34991 2.10809
upperback -16.0851 2.1245 -0.55573
thorax -6.07613 1.16156 -1.50129
lowerneck -13.7464 1.80012 4.01269
upperneck 29.7113 2.6854 -2.54395
head 12.1394 1.46928 -1.23588
rclavicle 2.37548e-014 3.93594e-014
rhumerus -52.2933 -0.261532 -78.9132
rradius 29.7139
rwrist 12.1224
rhand -16.2396 -15.8901
rfingers 7.12502
rthumb 9.96905 314.366
lclavicle 2.37548e-014 3.93594e-014
lhumerus -52.0064 -2.74582 81.6874
lradius 23.0947
lwrist -10.8584
lhand -10.5317 26.3925
lfingers 7.12502
lthumb 15.4716 55.7934
rfemur -51.4708 12.7919 16.3457
rtibia 29.9404
rfoot -7.31411 -3.67823
rtoes -4.05507
lfemur -32.3881 -0.0673061 -19.9968
ltibia 49.6662
lfoot -17.1614 -6.59286
ltoes -27.4879
897
root 9.73654 16.6716 34.6145 24.7766 41.7063 -5.73469
lowerback -20.448 1.40081 2.19958
upperback -16.0405 2.18548 -0.607228
thorax -6.06708 1.1847 -1.60088
lowerneck -13.8523 1.81676 4.14058
upperneck 29.6403 2.78473 -2.9058
head 12.1445 1.48119 -1.37894
rclavicle 3.47873e-014 -1.11319e-014
rhumerus -52.0104 -0.273367 -78.8659
rradius 29.4528
rwrist 12.326
rhand -16.5175 -16.0948
rfingers 7.12502
rthumb 9.70092 314.149
lclavicle 3.47873e-014 -1.11319e-014
lhumerus -52.2132 -2.89901 81.7067
lradius 23.14
lwrist -10.3522
lhand -10.552 26.4394
lfingers 7.12502
lthumb 15.4521 55.8418
rfemur -50.9984 12.7371 16.7175
rtibia 29.9631
rfoot -7.70168 -4.11363
rtoes -3.83256
lfemur -33.3489 0.187398 -19.6616
ltibia 51.4524
lfoot -15.4953 -7.59558
ltoes -26.5079
898
root 9.76437 16.6763 34.6911 24.5898 42.3802 -5.94089
lowerback -20.3398 1.45349 2.29752
upperback -16.0006 2.24886 -0.657445
thorax -6.06783 1.20867 -1.70286
lowerneck -13.9487 1.85096 4.26962
upperneck 29.5649 2.90906 -3.26532
head 12.1476 1.50496 -1.51765
rclavicle -5.1684e-015 -4.05521e-014
rhumerus -51.7295 -0.240445 -78.8479
rradius 29.232
rwrist 12.473
rhand -16.7915 -16.314
rfingers 7.12502
rthumb 9.4365 313.917
lclavicle -5.1684e-015 -4.05521e-014
lhumerus -52.4147 -3.18748 81.8578
lradius 23.2645
lwrist -9.77685
lhand -10.4705 26.5069
lfingers 7.12502
lthumb 15.5306 55.9032
rfemur -50.5753 12.6317 17.109
rtibia 30.0287
rfoot -8.09338 -4.52012
rtoes -3.68979
lfemur -34.4038 0.435683 -19.3167
ltibia 53.2728
lfoot -13.7052 -8.63199
ltoes -25.2675
899
root 9.79172 16.6796 34.7636 24.4349 43.0832 -6.14321
lowerback -20.2373 1.50303 2.4071
upperback -15.9642 2.30735 -0.700573
thorax -6.06988 1.22978 -1.8045
lowerneck -14.0383 1.90714 4.39056
upperneck 29.4808 3.06888 -3.62877
head 12.1483 1.54336 -1.65116
rclavicle -4.27387e-014 2.06736e-014
rhumerus -51.4312 -0.140019 -78.8564
rradius 29.0469
rwrist 12.5581
rhand -17.0422 -16.5453
rfingers 7.12502
rthumb 9.19459 313.675
lclavicle -4.27387e-014 2.06736e-014
lhumerus -52.6143 -3.61529 82.1703
lradius 23.4831
lwrist -9.12527
lhand -10.2936 26.5998
lfingers 7.12502
lthumb 15.7009 55.9829
rfemur -50.2107 12.4339 17.5287
rtibia 30.125
rfoot -8.47593 -4.85813
rtoes -3.6376
lfemur -35.5496 0.630977 -18.9667
ltibia 55.1027
lfoot -11.8347 -9.65028
ltoes -23.6163
900
root 9.8189 16.6821 34.8324 24.324 43.8089 -6.3387
lowerback -20.1582 1.55065 2.52318
upperback -15.934 2.36321 -0.735975
thorax -6.06774 1.24994 -1.90141
lowerneck -14.1281 1.98492 4.48361
upperneck 29.4062 3.26442 -3.97814
head 12.1551 1.59676 -1.76923
rclavicle 3.43897e-014 3.02153e-014
rhumerus -51.1152 0.00393649 -78.8669
rradius 28.8901
rwrist 12.6146
rhand -17.264 -16.7679
rfingers 7.12502
rthumb 8.98056 313.443
lclavicle 3.43897e-014 3.02153e-014
lhumerus -52.7787 -4.06829 82.5413
lradius 23.7333
lwrist -8.55815
lhand -10.0099 26.6693
lfingers 7.12502
lthumb 15.9741 56.0306
rfemur -49.9103 12.1487 17.9684
rtibia 30.2375
rfoot -8.84346 -5.12739
rtoes -3.61477
lfemur -36.7757 0.758921 -18.6174
ltibia 56.9219
lfoot -9.93679 -10.5675
ltoes -21.5993
901
root 9.84635 16.6844 34.8982 24.2526 44.5418 -6.52345
lowerback -20.102 1.59674 2.63858
upperback -15.9099 2.4178 -0.76136
thorax -6.06166 1.27054 -1.98689
lowerneck -14.2036 2.08706 4.56601
upperneck 29.338 3.50137 -4.33121
head 12.1648 1.66765 -1.88077
rclavicle -6.69904e-014 -1.59028e-015
rhumerus -50.7836 0.204898 -78.8841
rradius 28.7567
rwrist 12.6358
rhand -17.4637 -16.9689
rfingers 7.12502
rthumb 8.7879 313.234
lclavicle -6.69904e-014 -1.59028e-015
lhumerus -52.9223 -4.54321 82.9687
lradius 24.0184
lwrist -8.08327
lhand -9.62565 26.6958
lfingers 7.12502
lthumb 16.3441 56.0271
rfemur -49.662 11.804 18.4108
rtibia 30.3545
rfoot -9.19837 -5.3481
rtoes -3.55039
lfemur -38.0512 0.825695 -18.2816
ltibia 58.711
lfoot -8.09321 -11.2839
ltoes -19.2287
902
root 9.87412 16.6866 34.9616 24.2195 45.2754 -6.692
lowerback -20.0646 1.643 2.7489
upperback -15.8963 2.47415 -0.783153
thorax -6.05844 1.29309 -2.06519
lowerneck -14.242 2.20978 4.6713
upperneck 29.2695 3.77498 -4.71684
head 12.1715 1.75441 -2.00325
rclavicle 6.63941e-014 -3.65764e-014
rhumerus -50.4531 0.45796 -78.9155
rradius 28.6474
rwrist 12.6315
rhand -17.6431 -17.1502
rfingers 7.12502
rthumb 8.61478 313.046
lclavicle 6.63941e-014 -3.65764e-014
lhumerus -53.0487 -5.00805 83.4065
lradius 24.3215
lwrist -7.76002
lhand -9.15088 26.6388
lfingers 7.12502
lthumb 16.8012 55.9319
rfemur -49.4591 11.4417 18.8292
rtibia 30.4697
rfoot -9.54557 -5.56328
rtoes -3.41303
lfemur -39.346 0.855943 -17.9771
ltibia 60.458
lfoot -6.46628 -11.6071
ltoes -17.0314
903
root 9.90206 16.6891 35.0233 24.2157 46.0068 -6.83984
lowerback -20.034 1.68484 2.84441
upperback -15.894 2.52782 -0.802025
thorax -6.06556 1.3159 -2.13266
lowerneck -14.2439 2.35533 4.82162
upperneck 29.2146 4.08735 -5.14682
head 12.1824 1.85927 -2.14491
rclavicle -5.94366e-014 6.36111e-015
rhumerus -50.1342 0.768648 -78.9757
rradius 28.5624
rwrist 12.5796
rhand -17.8285 -17.3067
rfingers 7.12502
rthumb 8.43586 312.882
lclavicle -5.94366e-014 6.36111e-015
lhumerus -53.1653 -5.44626 83.8301
lradius 24.6366
lwrist -7.59679
lhand -8.5991 26.4833
lfingers 7.12502
lthumb 17.3323 55.7305
rfemur -49.2872 11.0987 19.2044
rtibia 30.5834
rfoot -9.88909 -5.82143
rtoes -3.22253
lfemur -40.6545 0.884111 -17.7282
ltibia 62.1465
lfoot -5.16233 -11.4049
ltoes -15.3342
904
root 9.93045 16.6916 35.084 24.2198 46.7229 -6.97342
lowerback -20.0002 1.72846 2.92698
upperback -15.9002 2.58643 -0.821161
thorax -6.08411 1.3423 -2.19288
lowerneck -14.2034 2.52113 5.02206
upperneck 29.1759 4.43333 -5.61777
head 12.198 1.98125 -2.30632
rclavicle 5.96354e-016 -4.45278e-014
rhumerus -49.8341 1.12971 -79.0629
rradius 28.5039
rwrist 12.4806
rhand -18.0045 -17.4438
rfingers 7.12502
rthumb 8.26602 312.738
lclavicle 5.96354e-016 -4.45278e-014
lhumerus -53.2816 -5.86832 84.2396
lradius 24.9688
lwrist -7.56598
lhand -7.98038 26.2423
lfingers 7.12502
lthumb 17.9277 55.436
rfemur -49.1274 10.7961 19.5399
rtibia 30.7002
rfoot -10.2364 -6.12789
rtoes -2.93537
lfemur -41.9344 0.934911 -17.5384
ltibia 63.7622
lfoot -4.27325 -10.5961
ltoes -14.2573
905
root 9.95907 16.694 35.1435 24.2304 47.4292 -7.08096
lowerback -19.9446 1.77043 2.99288
upperback -15.9155 2.64636 -0.84556
thorax -6.12412 1.37015 -2.2504
lowerneck -14.113 2.71002 5.28896
upperneck 29.1481 4.81551 -6.13678
head 12.2163 2.1228 -2.4928
rclavicle 9.0944e-014 7.79236e-014
rhumerus -49.5558 1.52285 -79.1705
rradius 28.4715
rwrist 12.3566
rhand -18.1476 -17.5719
rfingers 7.12502
rthumb 8.12784 312.604
lclavicle 9.0944e-014 7.79236e-014
lhumerus -53.3997 -6.27193 84.6256
lradius 25.3201
lwrist -7.62734
lhand -7.32361 25.9593
lfingers 7.12502
lthumb 18.5596 55.0939
rfemur -48.9708 10.5152 19.8414
rtibia 30.829
rfoot -10.5752 -6.47232
rtoes -2.71656
lfemur -43.1795 1.01288 -17.424
ltibia 65.282
lfoot -3.78975 -9.19594
ltoes -13.6166
906
root 9.98771 16.6962 35.2022 24.248 48.1212 -7.16503
lowerback -19.8741 1.81475 3.03898
upperback -15.9378 2.71294 -0.877894
thorax -6.17936 1.40241 -2.30532
lowerneck -13.9556 2.91676 5.64575
upperneck 29.1096 5.2289 -6.73273
head 12.2278 2.28136 -2.72026
rclavicle 6.36111e-014 2.70347e-014
rhumerus -49.2958 1.93309 -79.2888
rradius 28.4626
rwrist 12.2221
rhand -18.2515 -17.6941
rfingers 7.12502
rthumb 8.02761 312.478
lclavicle 6.36111e-014 2.70347e-014
lhumerus -53.5024 -6.64233 84.9698
lradius 25.6695
lwrist -7.77416
lhand -6.65819 25.6491
lfingers 7.12502
lthumb 19.1995 54.7214
rfemur -48.8228 10.2537 20.1176
rtibia 30.9782
rfoot -10.9092 -6.84615
rtoes -2.51494
lfemur -44.3976 1.13518 -17.3911
ltibia 66.6814
lfoot -3.63784 -7.337
ltoes -13.4399
